# xmcd
#
# Track frame offsets: 
#        150
#        20290
#        47960
#        70638
#        90973
#        106483
#        120033
#        139213
#        159062
#        181497
#        199471
#        213477
#        230075
#        258394
#        278784
#
# Disc length: 3918 seconds
#
# Revision: 0
# Processed by: cddbd v1.5.1PL0 Copyright (c) Steve Scherf et al.
# Submitted via: ExactAudioCopy v0.95a4
#
DISCID=cc0f4c0f
DTITLE=鞍安 - 甜歌唱法--柔情似水 Ⅳ
DYEAR=1900
DGENRE=
TTITLE0=长相依
TTITLE1=春天的故事
TTITLE2=常回家看看
TTITLE3=走进新时代
TTITLE4=天涯歌女
TTITLE5=送别
TTITLE6=没有情人的情人节
TTITLE7=你是风儿我是沙
TTITLE8=知心爱人
TTITLE9=我是一只小小鸟
TTITLE10=望星空
TTITLE11=蝶儿蝶儿满天飞
TTITLE12=红雨
TTITLE13=真心真意过一生
TTITLE14=青藏高原
EXTD=
EXTT0=
EXTT1=
EXTT2=
EXTT3=
EXTT4=
EXTT5=
EXTT6=
EXTT7=
EXTT8=
EXTT9=
EXTT10=
EXTT11=
EXTT12=
EXTT13=
EXTT14=
PLAYORDER=
